<svg width="109" height="109" viewBox="0 0 109 109" fill="none" xmlns="http://www.w3.org/2000/svg">
<path fill-rule="evenodd" clip-rule="evenodd" d="M36.0357 75.5445L37.5658 75.0162C39.6093 74.3107 41.8493 74.4459 43.7931 75.392C45.737 76.3381 47.2254 78.0176 47.9309 80.0611L48.4592 81.5912C49.411 84.348 51.419 86.6137 54.0413 87.89L55.2374 88.4722C60.6983 91.1301 67.2798 88.8578 69.9377 83.3969C71.5468 80.0909 71.3971 76.1995 69.5389 73.0268C67.4483 69.4572 66.2078 65.4541 65.9138 61.3279L65.4725 55.1369C65.1645 50.8133 62.5744 46.9822 58.677 45.0853C54.8432 43.2193 50.3115 43.5017 46.739 45.8291L41.0768 49.5179C37.7351 51.695 33.9516 53.1029 29.9996 53.6398L29.7704 53.671C26.127 54.166 22.9721 56.4491 21.3631 59.7551C18.7052 65.216 20.9775 71.7975 26.4384 74.4554L27.6345 75.0376C30.2569 76.3139 33.2789 76.4962 36.0357 75.5445Z" fill="#FF9900" stroke="#FF9900" stroke-width="5.0625" stroke-linecap="round" stroke-linejoin="round"/>
<circle cx="35.0627" cy="35.4656" r="5.06461" transform="rotate(25.9527 35.0627 35.4656)" fill="#FF9900" stroke="#FF9900" stroke-width="5.0625" stroke-linecap="round" stroke-linejoin="round"/>
<circle cx="80.5999" cy="57.6297" r="5.06461" transform="rotate(25.9527 80.5999 57.6297)" fill="#FF9900" stroke="#FF9900" stroke-width="5.0625" stroke-linecap="round" stroke-linejoin="round"/>
<circle cx="55.4612" cy="26.6199" r="5.06461" transform="rotate(25.9527 55.4612 26.6199)" fill="#FF9900" stroke="#FF9900" stroke-width="5.0625" stroke-linecap="round" stroke-linejoin="round"/>
<circle cx="74.9807" cy="36.1199" r="5.06461" transform="rotate(25.9527 74.9807 36.1199)" fill="#FF9900" stroke="#FF9900" stroke-width="5.0625" stroke-linecap="round" stroke-linejoin="round"/>
</svg>
