<svg width="342" height="305" viewBox="0 0 342 305" fill="none" xmlns="http://www.w3.org/2000/svg">
<path fill-rule="evenodd" clip-rule="evenodd" d="M83.291 369.253L89.5368 363.007C97.8785 354.666 109.192 349.98 120.988 349.98C132.785 349.98 144.099 354.666 152.441 363.008L158.687 369.254C169.94 380.507 185.203 386.828 201.117 386.828H208.376C241.517 386.828 268.383 359.962 268.383 326.821C268.383 306.758 258.356 288.022 241.662 276.893C222.88 264.371 207.234 247.692 195.938 228.149L178.988 198.826C167.152 178.349 145.295 165.736 121.642 165.736C98.3759 165.736 76.8154 177.944 64.8449 197.894L45.8724 229.515C34.6752 248.177 19.4735 264.12 1.36513 276.192L0.314941 276.893C-16.3788 288.022 -26.4062 306.758 -26.4062 326.821C-26.4062 359.962 0.459787 386.828 33.6007 386.828H40.8599C56.7747 386.828 72.0376 380.506 83.291 369.253Z" fill="#FF9900" stroke="#FF9900" stroke-width="27.625" stroke-linecap="round" stroke-linejoin="round"/>
<circle cx="-17.1955" cy="174.933" r="27.6365" fill="#FF9900" stroke="#FF9900" stroke-width="27.625" stroke-linecap="round" stroke-linejoin="round"/>
<circle cx="259.164" cy="174.933" r="27.6365" fill="#FF9900" stroke="#FF9900" stroke-width="27.625" stroke-linecap="round" stroke-linejoin="round"/>
<circle cx="61.7674" cy="82.8191" r="27.6365" fill="#FF9900" stroke="#FF9900" stroke-width="27.625" stroke-linecap="round" stroke-linejoin="round"/>
<circle cx="180.226" cy="82.8191" r="27.6365" fill="#FF9900" stroke="#FF9900" stroke-width="27.625" stroke-linecap="round" stroke-linejoin="round"/>
</svg>
