<svg width="117" height="117" viewBox="0 0 117 117" fill="none" xmlns="http://www.w3.org/2000/svg">
<path fill-rule="evenodd" clip-rule="evenodd" d="M48.518 97.7431L50.1713 96.0898C52.3794 93.8818 55.3741 92.6414 58.4967 92.6414C61.6194 92.6414 64.6143 93.8819 66.8223 96.09L68.4757 97.7433C71.4545 100.722 75.4946 102.395 79.7073 102.395H81.6288C90.4014 102.395 97.513 95.2839 97.513 86.5113C97.513 81.2004 94.8587 76.2408 90.4398 73.2948C85.468 69.9803 81.3265 65.5653 78.3362 60.3921L73.8496 52.6302C70.7165 47.2097 64.9307 43.8711 58.6698 43.8711C52.511 43.8711 46.8039 47.1024 43.6352 52.3835L38.6131 60.7538C35.6491 65.6937 31.6251 69.9139 26.8317 73.1095L26.5537 73.2948C22.1348 76.2408 19.4805 81.2003 19.4805 86.5113C19.4805 95.2839 26.5921 102.395 35.3647 102.395H37.2862C41.4989 102.395 45.5391 100.722 48.518 97.7431Z" fill="#FF9900" stroke="#FF9900" stroke-width="7.3125" stroke-linecap="round" stroke-linejoin="round"/>
<circle cx="21.9191" cy="46.3058" r="7.31555" fill="#FF9900" stroke="#FF9900" stroke-width="7.3125" stroke-linecap="round" stroke-linejoin="round"/>
<circle cx="95.0714" cy="46.3058" r="7.31555" fill="#FF9900" stroke="#FF9900" stroke-width="7.3125" stroke-linecap="round" stroke-linejoin="round"/>
<circle cx="42.8195" cy="21.922" r="7.31555" fill="#FF9900" stroke="#FF9900" stroke-width="7.3125" stroke-linecap="round" stroke-linejoin="round"/>
<circle cx="74.1769" cy="21.922" r="7.31555" fill="#FF9900" stroke="#FF9900" stroke-width="7.3125" stroke-linecap="round" stroke-linejoin="round"/>
</svg>
