<svg width="48" height="48" viewBox="0 0 48 48" fill="none" xmlns="http://www.w3.org/2000/svg">
<rect width="48" height="48" rx="12" fill="#FF9900"/>
<path d="M24.4555 7C19.7153 7 19.1204 7.02073 17.2586 7.10545C15.4005 7.19055 14.1321 7.48473 13.0224 7.91636C11.8744 8.36218 10.9006 8.95855 9.93046 9.92909C8.95958 10.8993 8.36323 11.8731 7.91597 13.0207C7.48326 14.1309 7.18872 15.3996 7.10509 17.2571C7.02182 19.1189 7 19.7142 7 24.4545C7 29.1949 7.02109 29.788 7.10545 31.6498C7.1909 33.508 7.48508 34.7764 7.91634 35.8862C8.3625 37.0342 8.95885 38.008 9.92937 38.9782C10.8992 39.9491 11.8729 40.5469 13.0202 40.9927C14.1307 41.4244 15.3994 41.7185 17.2571 41.8036C19.1189 41.8884 19.7134 41.9091 24.4533 41.9091C29.1939 41.9091 29.7869 41.8884 31.6487 41.8036C33.5068 41.7185 34.7766 41.4244 35.8871 40.9927C37.0347 40.5469 38.0071 39.9491 38.9769 38.9782C39.9477 38.008 40.5441 37.0342 40.9913 35.8865C41.4204 34.7764 41.7149 33.5076 41.8022 31.6502C41.8859 29.7884 41.9077 29.1949 41.9077 24.4545C41.9077 19.7142 41.8859 19.1193 41.8022 17.2575C41.7149 15.3993 41.4204 14.1309 40.9913 13.0211C40.5441 11.8731 39.9477 10.8993 38.9769 9.92909C38.006 8.95818 37.0351 8.36182 35.886 7.91636C34.7733 7.48473 33.5043 7.19055 31.6462 7.10545C29.7844 7.02073 29.1917 7 24.45 7H24.4555ZM22.8897 10.1455C23.3544 10.1447 23.8729 10.1455 24.4555 10.1455C29.1157 10.1455 29.668 10.1622 31.5083 10.2458C33.2101 10.3236 34.1337 10.608 34.749 10.8469C35.5635 11.1633 36.1442 11.5415 36.7547 12.1524C37.3656 12.7633 37.7438 13.3451 38.0609 14.1596C38.2998 14.7742 38.5845 15.6978 38.6619 17.3996C38.7456 19.2396 38.7638 19.7924 38.7638 24.4505C38.7638 29.1087 38.7456 29.6615 38.6619 31.5015C38.5841 33.2033 38.2998 34.1269 38.0609 34.7415C37.7445 35.556 37.3656 36.136 36.7547 36.7465C36.1438 37.3575 35.5639 37.7356 34.749 38.052C34.1344 38.292 33.2101 38.5756 31.5083 38.6535C29.6684 38.7371 29.1157 38.7553 24.4555 38.7553C19.7949 38.7553 19.2425 38.7371 17.4026 38.6535C15.7008 38.5749 14.7772 38.2905 14.1616 38.0516C13.3471 37.7353 12.7653 37.3571 12.1544 36.7462C11.5435 36.1353 11.1653 35.5549 10.8482 34.74C10.6093 34.1255 10.3246 33.2018 10.2472 31.5C10.1635 29.66 10.1468 29.1073 10.1468 24.4462C10.1468 19.7851 10.1635 19.2353 10.2472 17.3953C10.325 15.6935 10.6093 14.7698 10.8482 14.1545C11.1646 13.34 11.5435 12.7582 12.1544 12.1473C12.7653 11.5364 13.3471 11.1582 14.1616 10.8411C14.7769 10.6011 15.7008 10.3175 17.4026 10.2393C19.0127 10.1665 19.6367 10.1447 22.8897 10.1411V10.1455ZM33.7723 13.0436C32.616 13.0436 31.6778 13.9807 31.6778 15.1375C31.6778 16.2938 32.616 17.232 33.7723 17.232C34.9286 17.232 35.8668 16.2938 35.8668 15.1375C35.8668 13.9811 34.9286 13.0429 33.7723 13.0429V13.0436ZM24.4555 15.4909C19.5054 15.4909 15.4921 19.5044 15.4921 24.4545C15.4921 29.4047 19.5054 33.4164 24.4555 33.4164C29.4055 33.4164 33.4174 29.4047 33.4174 24.4545C33.4174 19.5044 29.4051 15.4909 24.4551 15.4909H24.4555ZM24.4555 18.6364C27.6685 18.6364 30.2735 21.2411 30.2735 24.4545C30.2735 27.6676 27.6685 30.2727 24.4555 30.2727C21.2421 30.2727 18.6375 27.6676 18.6375 24.4545C18.6375 21.2411 21.2421 18.6364 24.4555 18.6364Z" fill="white"/>
</svg>
