<svg width="48" height="48" viewBox="0 0 48 48" fill="none" xmlns="http://www.w3.org/2000/svg">
<rect width="48" height="48" rx="12" fill="#FF9900"/>
<path fill-rule="evenodd" clip-rule="evenodd" d="M10.1225 22.2136C18.4423 18.5559 23.9809 16.1255 26.7621 14.9464C34.6778 11.6016 36.3417 11.0241 37.4114 11C37.6491 11 38.1721 11.0481 38.5287 11.3369C38.8139 11.5775 38.8852 11.8904 38.9328 12.131C38.9803 12.3716 39.0279 12.877 38.9803 13.262C38.5524 17.834 36.6983 28.9273 35.7475 34.0288C35.3434 36.1945 34.5589 36.9164 33.7983 36.9886C32.1343 37.1329 30.8745 35.8816 29.2818 34.8229C26.7621 33.1625 25.3596 32.1277 22.9112 30.4914C20.0825 28.6145 21.9129 27.5797 23.5293 25.8953C23.9571 25.4622 31.2548 18.7244 31.3974 18.1228C31.4212 18.0506 31.4212 17.7618 31.2548 17.6175C31.0884 17.4731 30.8507 17.5212 30.6605 17.5693C30.399 17.6175 26.4055 20.3126 18.6325 25.6306C17.4915 26.4247 16.4693 26.8097 15.5423 26.7857C14.5201 26.7616 12.5709 26.2081 11.0971 25.7269C9.31432 25.1493 7.88807 24.8365 8.00693 23.8258C8.07824 23.2964 8.79136 22.767 10.1225 22.2136Z" fill="white"/>
</svg>
