<svg width="157" height="32" viewBox="0 0 157 32" fill="none" xmlns="http://www.w3.org/2000/svg">
<path fill-rule="evenodd" clip-rule="evenodd" d="M13.27 26.7333L13.7222 26.2811C14.3261 25.6772 15.1452 25.3379 15.9992 25.3379C16.8533 25.3379 17.6724 25.6772 18.2763 26.2811L18.7285 26.7333C19.5432 27.548 20.6482 28.0057 21.8004 28.0057H22.326C24.7253 28.0057 26.6703 26.0606 26.6703 23.6613C26.6703 22.2087 25.9444 20.8523 24.7358 20.0465C23.376 19.14 22.2433 17.9325 21.4254 16.5176L20.1983 14.3947C19.3414 12.9121 17.759 11.999 16.0466 11.999C14.3621 11.999 12.8012 12.8828 11.9345 14.3272L10.561 16.6165C9.75031 17.9676 8.64974 19.1218 7.33872 19.9958L7.26269 20.0465C6.05409 20.8523 5.32812 22.2087 5.32812 23.6613C5.32812 26.0606 7.27318 28.0057 9.67252 28.0057H10.1981C11.3503 28.0057 12.4553 27.548 13.27 26.7333Z" fill="white" stroke="white" stroke-width="2" stroke-linecap="round" stroke-linejoin="round"/>
<circle cx="5.99693" cy="12.6659" r="2.00083" fill="white" stroke="white" stroke-width="2" stroke-linecap="round" stroke-linejoin="round"/>
<circle cx="26.0047" cy="12.6659" r="2.00083" fill="white" stroke="white" stroke-width="2" stroke-linecap="round" stroke-linejoin="round"/>
<circle cx="11.7118" cy="5.99595" r="2.00083" fill="white" stroke="white" stroke-width="2" stroke-linecap="round" stroke-linejoin="round"/>
<circle cx="20.286" cy="5.99595" r="2.00083" fill="white" stroke="white" stroke-width="2" stroke-linecap="round" stroke-linejoin="round"/>
<path d="M41.733 9.90909L44.3729 14.3707H44.4751L47.1278 9.90909H50.2536L46.2585 16.4545L50.343 23H47.1598L44.4751 18.532H44.3729L41.6882 23H38.5178L42.6151 16.4545L38.5945 9.90909H41.733ZM51.9538 23V13.1818H56.1406C57.3509 13.1818 58.3075 13.4119 59.0107 13.8722C59.7138 14.3324 60.0653 14.9865 60.0653 15.8345C60.0653 16.3672 59.8672 16.8104 59.4709 17.1641C59.0746 17.5178 58.5249 17.7564 57.8217 17.88C58.4098 17.9226 58.9105 18.0568 59.3239 18.2827C59.7415 18.5043 60.0589 18.7919 60.2763 19.1456C60.4979 19.4993 60.6087 19.8913 60.6087 20.3217C60.6087 20.88 60.4595 21.3594 60.1612 21.7599C59.8672 22.1605 59.4347 22.4673 58.8636 22.6804C58.2969 22.8935 57.6044 23 56.7862 23H51.9538ZM54.4915 20.9609H56.7862C57.1655 20.9609 57.4616 20.8714 57.6747 20.6925C57.892 20.5092 58.0007 20.2599 58.0007 19.9446C58.0007 19.5952 57.892 19.3203 57.6747 19.12C57.4616 18.9197 57.1655 18.8196 56.7862 18.8196H54.4915V20.9609ZM54.4915 17.2216H56.1982C56.4709 17.2216 56.7031 17.1832 56.8949 17.1065C57.0909 17.0256 57.2401 16.9105 57.3423 16.7614C57.4489 16.6122 57.5021 16.4354 57.5021 16.2308C57.5021 15.9283 57.3807 15.6918 57.1378 15.5213C56.8949 15.3509 56.5625 15.2656 56.1406 15.2656H54.4915V17.2216ZM66.761 23.1918C65.7681 23.1918 64.9094 22.9808 64.185 22.5589C63.4648 22.1328 62.9087 21.5405 62.5167 20.782C62.1246 20.0192 61.9286 19.1349 61.9286 18.1293C61.9286 17.1151 62.1246 16.2287 62.5167 15.4702C62.9087 14.7074 63.4648 14.1151 64.185 13.6932C64.9094 13.267 65.7681 13.054 66.761 13.054C67.7539 13.054 68.6104 13.267 69.3306 13.6932C70.055 14.1151 70.6133 14.7074 71.0053 15.4702C71.3974 16.2287 71.5934 17.1151 71.5934 18.1293C71.5934 19.1349 71.3974 20.0192 71.0053 20.782C70.6133 21.5405 70.055 22.1328 69.3306 22.5589C68.6104 22.9808 67.7539 23.1918 66.761 23.1918ZM66.7738 21.0824C67.2255 21.0824 67.6026 20.9545 67.9052 20.6989C68.2077 20.4389 68.4357 20.0852 68.5891 19.6378C68.7468 19.1903 68.8256 18.6811 68.8256 18.1101C68.8256 17.5391 68.7468 17.0298 68.5891 16.5824C68.4357 16.1349 68.2077 15.7812 67.9052 15.5213C67.6026 15.2614 67.2255 15.1314 66.7738 15.1314C66.3178 15.1314 65.9343 15.2614 65.6232 15.5213C65.3164 15.7812 65.0842 16.1349 64.9265 16.5824C64.7731 17.0298 64.6964 17.5391 64.6964 18.1101C64.6964 18.6811 64.7731 19.1903 64.9265 19.6378C65.0842 20.0852 65.3164 20.4389 65.6232 20.6989C65.9343 20.9545 66.3178 21.0824 66.7738 21.0824ZM77.8001 23.1918C76.7944 23.1918 75.9293 22.9787 75.2049 22.5526C74.4847 22.1222 73.9308 21.5256 73.543 20.7628C73.1594 20 72.9677 19.1222 72.9677 18.1293C72.9677 17.1236 73.1616 16.2415 73.5494 15.483C73.9414 14.7202 74.4975 14.1257 75.2177 13.6996C75.9379 13.2692 76.7944 13.054 77.7873 13.054C78.6438 13.054 79.3938 13.2095 80.0373 13.5206C80.6808 13.8317 81.19 14.2685 81.565 14.831C81.94 15.3935 82.1467 16.054 82.185 16.8125H79.6154C79.543 16.3224 79.3512 15.9283 79.0401 15.63C78.7333 15.3274 78.3306 15.1761 77.832 15.1761C77.4102 15.1761 77.0415 15.2912 76.7262 15.5213C76.4151 15.7472 76.1722 16.0774 75.9975 16.5121C75.8228 16.9467 75.7354 17.473 75.7354 18.0909C75.7354 18.7173 75.8207 19.25 75.9911 19.6889C76.1658 20.1278 76.4109 20.4624 76.7262 20.6925C77.0415 20.9226 77.4102 21.0376 77.832 21.0376C78.1431 21.0376 78.4222 20.9737 78.6694 20.8459C78.9208 20.718 79.1275 20.5327 79.2894 20.2898C79.4556 20.0426 79.5643 19.7464 79.6154 19.4013H82.185C82.1424 20.1513 81.9379 20.8118 81.5714 21.3828C81.2092 21.9496 80.7085 22.3928 80.0692 22.7124C79.43 23.032 78.6737 23.1918 77.8001 23.1918ZM83.2589 15.3232V13.1818H92.1566V15.3232H88.9925V23H86.3974V15.3232H83.2589ZM96.4089 19.4077L99.9437 13.1818H102.628V23H100.033V16.755L96.5112 23H93.8074V13.1818H96.4089V19.4077ZM104.811 23V13.1818H107.534V16.9915H108.301L110.973 13.1818H114.169L110.698 18.0526L114.208 23H110.973L108.551 19.5163H107.534V23H104.811ZM122.126 19.4077L125.661 13.1818H128.345V23H125.75V16.755L122.228 23H119.524V13.1818H122.126V19.4077ZM142.665 23L138.459 17.4197H137.513V23H134.745V9.90909H137.513V15.1378H138.069L142.416 9.90909H145.861L140.754 15.9815L146.097 23H142.665ZM151.154 23.1918C150.161 23.1918 149.302 22.9808 148.578 22.5589C147.857 22.1328 147.301 21.5405 146.909 20.782C146.517 20.0192 146.321 19.1349 146.321 18.1293C146.321 17.1151 146.517 16.2287 146.909 15.4702C147.301 14.7074 147.857 14.1151 148.578 13.6932C149.302 13.267 150.161 13.054 151.154 13.054C152.146 13.054 153.003 13.267 153.723 13.6932C154.448 14.1151 155.006 14.7074 155.398 15.4702C155.79 16.2287 155.986 17.1151 155.986 18.1293C155.986 19.1349 155.79 20.0192 155.398 20.782C155.006 21.5405 154.448 22.1328 153.723 22.5589C153.003 22.9808 152.146 23.1918 151.154 23.1918ZM151.166 21.0824C151.618 21.0824 151.995 20.9545 152.298 20.6989C152.6 20.4389 152.828 20.0852 152.982 19.6378C153.139 19.1903 153.218 18.6811 153.218 18.1101C153.218 17.5391 153.139 17.0298 152.982 16.5824C152.828 16.1349 152.6 15.7812 152.298 15.5213C151.995 15.2614 151.618 15.1314 151.166 15.1314C150.71 15.1314 150.327 15.2614 150.016 15.5213C149.709 15.7812 149.477 16.1349 149.319 16.5824C149.166 17.0298 149.089 17.5391 149.089 18.1101C149.089 18.6811 149.166 19.1903 149.319 19.6378C149.477 20.0852 149.709 20.4389 150.016 20.6989C150.327 20.9545 150.71 21.0824 151.166 21.0824Z" fill="white"/>
</svg>
